<?xml version="1.0" encoding="UTF-8" standalone="no"?>
<!-- Created with Inkscape (http://www.inkscape.org/) -->

<svg
        width="150mm"
        height="150mm"
        viewBox="0 0 150 150"
        version="1.1"
        id="svg5"
        sodipodi:docname="GuiApi-logo2-ex.svg"
        inkscape:version="1.2.1 (9c6d41e410, 2022-07-14)"
        xmlns:inkscape="http://www.inkscape.org/namespaces/inkscape"
        xmlns:sodipodi="http://sodipodi.sourceforge.net/DTD/sodipodi-0.dtd"
        xmlns="http://www.w3.org/2000/svg"
>
  <sodipodi:namedview
     id="namedview17"
     pagecolor="#ffffff"
     bordercolor="#999999"
     borderopacity="1"
     inkscape:showpageshadow="0"
     inkscape:pageopacity="0"
     inkscape:pagecheckerboard="0"
     inkscape:deskcolor="#d1d1d1"
     inkscape:document-units="mm"
     showgrid="false"
     inkscape:zoom="0.9753556"
     inkscape:cx="89.710871"
     inkscape:cy="260.41784"
     inkscape:window-width="3440"
     inkscape:window-height="1371"
     inkscape:window-x="0"
     inkscape:window-y="0"
     inkscape:window-maximized="1"
     inkscape:current-layer="svg5" />
  <defs
     id="defs2">
    <clipPath
       clipPathUnits="userSpaceOnUse"
       id="clipPath128">
      <g
         inkscape:label="Clip"
         id="use130" />
    </clipPath>
  </defs>
  <path
     id="path212"
     style="display:inline;fill:#666666;stroke-width:0.264583"
     d="M 38.991694,45.666115 H 165.10808 c 6.61576,0 11.9418,5.326047 11.9418,11.941809 V 183.72431 c 0,6.61576 -5.32604,11.9418 -11.9418,11.9418 H 38.991694 c -6.615762,0 -11.941809,-5.32604 -11.941809,-11.9418 V 57.607924 c 0,-6.615762 5.326047,-11.941809 11.941809,-11.941809 z"
     transform="translate(-27.049886,-45.666115)" />
  <path
     id="path256"
     style="display:inline;fill:#1a1a1a;stroke-width:0.264391"
     d="M -28.638643 -156.70017 C -26.481728 -154.54326 -23.498004 -153.2127 -20.192524 -153.2127 L 105.8322 -153.21255 C 110.59211 -153.21255 114.68328 -155.97222 116.6015 -159.98481 C 116.11831 -162.10992 115.05714 -164.13254 113.39442 -165.79239 L 24.139793 -254.89312 C 19.457714 -259.56713 11.925398 -259.56063 7.2513924 -254.87855 L -32.125983 -215.43316 L -32.126074 -165.14612 C -32.126074 -161.84064 -30.795559 -158.85708 -28.638643 -156.70017 z "
     transform="rotate(135.04944,-2.6548131,-28.881991)" />
  <path
     id="path253"
     style="display:inline;fill:#4d4d4d;stroke-width:0.264473"
     d="M -39.210179 -167.24101 C -37.052591 -165.08342 -34.068216 -163.7526 -30.761703 -163.7526 L 95.302457 -163.75241 C 100.77862 -163.75241 105.36774 -167.40456 106.78479 -172.41493 L 24.234504 -254.88414 C 19.554162 -259.55988 12.021845 -259.55618 7.3460998 -254.87584 L -42.698534 -204.78201 L -42.698492 -175.68935 C -42.698492 -172.38284 -41.367768 -169.3986 -39.210179 -167.24101 z "
     transform="rotate(135.02815,-2.649651,-28.884705)" />
  <path
     id="path250"
     style="display:inline;fill:#808080;stroke-width:0.264529"
     d="M -48.375387 -176.39322 C -46.217347 -174.23518 -43.232426 -172.9038 -39.925222 -172.9038 L 86.165602 -172.90404 C 91.641091 -172.90404 96.22928 -176.55448 97.648262 -181.56333 L 24.29794 -254.8781 C 19.618762 -259.55501 12.086444 -259.55318 7.4095344 -254.874 L -51.864563 -195.57116 L -51.86452 -184.84316 C -51.86452 -181.53596 -50.533427 -178.55126 -48.375387 -176.39322 z "
     transform="rotate(135.01389,-2.6461928,-28.886523)" />
  <path
     id="path247"
     style="display:inline;fill:#999999;stroke-width:0.264513"
     d="M -58.870784 -187.03778 C -56.712873 -184.87987 -53.728468 -183.54841 -50.421463 -183.54841 L 75.66169 -183.54833 C 81.112264 -183.54833 85.683816 -187.16636 87.124663 -192.14022 L 24.439665 -254.86455 C 19.763088 -259.54406 12.23077 -259.54642 7.551259 -254.86984 L -59.562262 -187.79841 C -59.341523 -187.53598 -59.113084 -187.28008 -58.870784 -187.03778 z "
     transform="rotate(134.98203,-2.6384653,-28.890585)" />
  <path
     id="path244"
     style="display:inline;fill:#b3b3b3;stroke-width:0.264415"
     d="M 195.23585 -52.273204 L 195.23589 63.751037 C 195.23589 69.228095 198.8903 73.81734 203.90254 75.232169 L 254.89055 24.166991 C 259.56505 19.485411 259.55936 11.953095 254.87778 7.2785892 L 195.23585 -52.273204 z "
     transform="rotate(45.043326,44.742625,-53.794821)" />
  <g
     id="g519"
     inkscape:label="g519"
     style="display:inline"
     transform="translate(-27.049886,-45.666115)">
    <g
       aria-label="GUI"
       transform="scale(0.96192071,1.0395867)"
       id="text382"
       style="font-size:31.75px;fill:#b3b3b3;stroke-width:1.72038">
      <path
         d="m 66.678783,79.72126 v -6.216675 h -5.115966 v -2.573486 h 8.216552 v 9.937378 q -1.813842,1.286743 -3.999756,1.953369 -2.185913,0.651123 -4.666381,0.651123 -5.426026,0 -8.495606,-3.162598 -3.054077,-3.1781 -3.054077,-8.83667 0,-5.674072 3.054077,-8.836669 3.06958,-3.178101 8.495606,-3.178101 2.263427,0 4.294311,0.558105 2.046387,0.558106 3.767212,1.643311 v 3.33313 q -1.736328,-1.472778 -3.689697,-2.216919 -1.953369,-0.744141 -4.108277,-0.744141 -4.247802,0 -6.387207,2.371949 -2.123901,2.371948 -2.123901,7.069335 0,4.681885 2.123901,7.053833 2.139405,2.371949 6.387207,2.371949 1.658814,0 2.96106,-0.279053 1.302246,-0.294556 2.340942,-0.89917 z"
         id="path241" />
      <path
         d="m 75.143383,59.87751 h 3.147095 v 14.061157 q 0,3.720703 1.348755,5.364014 1.348755,1.627808 4.371826,1.627808 3.007568,0 4.356323,-1.627808 1.348755,-1.643311 1.348755,-5.364014 V 59.87751 h 3.147095 v 14.448731 q 0,4.526855 -2.247925,6.836792 -2.232422,2.309936 -6.604248,2.309936 -4.387329,0 -6.635254,-2.309936 -2.232422,-2.309937 -2.232422,-6.836792 z"
         id="path238" />
      <path
         d="m 98.738842,59.87751 h 3.131588 v 23.145874 h -3.131588 z"
         id="path235" />
    </g>
    <g
       aria-label="API"
       id="text489"
       style="font-size:20.4097px;fill:#b3b3b3;stroke-width:1.70081"
       inkscape:label="text489">
      <path
         d="m 57.819401,102.06314 h -5.999335 l -0.946739,2.71066 h -3.856716 l 5.511018,-14.878748 h 4.574244 L 62.612891,104.7738 H 58.756175 Z M 52.77677,99.302649 h 4.075961 l -2.032997,-5.919611 z"
         style="font-weight:bold;-inkscape-font-specification:'sans-serif Bold';fill:#999999"
         id="path232" />
      <path
         d="m 64.586094,89.895052 h 6.368066 q 2.840217,0 4.354999,1.265641 1.524748,1.255675 1.524748,3.587643 0,2.341933 -1.524748,3.607574 -1.514782,1.255675 -4.354999,1.255675 h -2.531281 v 5.162215 h -3.836785 z m 3.836785,2.780423 v 4.155687 h 2.122688 q 1.116156,0 1.724062,-0.538147 0.607906,-0.548112 0.607906,-1.544679 0,-0.996568 -0.607906,-1.534714 -0.607906,-0.538147 -1.724062,-0.538147 z"
         style="font-weight:bold;-inkscape-font-specification:'sans-serif Bold';fill:#999999"
         id="path229" />
      <path
         d="m 79.544571,89.895052 h 3.836785 V 104.7738 h -3.836785 z"
         style="font-weight:bold;-inkscape-font-specification:'sans-serif Bold';fill:#999999"
         id="path226" />
    </g>
  </g>
</svg>
